<svg width="140" height="45" viewBox="0 0 140 45" fill="none" xmlns="http://www.w3.org/2000/svg">
<g clip-path="url(#clip0_7737_374)">
<path d="M36.7847 19.52C36.7847 21.5241 37.2331 21.9685 37.7782 22.1601V22.8269H32.9343C32.6753 22.0337 32.6135 21.777 32.5168 20.8228C31.4924 21.8727 30.0466 23.2714 27.0003 23.2714C24.4334 23.2714 21.8047 21.8383 21.8047 18.3436C21.8047 15.0368 23.9193 13.3546 26.7761 12.9408L30.8159 12.3354C31.5233 12.2396 32.3854 11.956 32.3854 10.9981C32.3854 9.12047 30.5878 9.02851 29.4358 9.02851C27.1897 9.02851 26.807 10.3965 26.6795 11.3812H22.3498C22.8639 6.20063 26.4862 5.46875 29.9809 5.46875C32.3854 5.46875 36.7808 6.20063 36.7808 10.362V19.5162L36.7847 19.52ZM32.3931 14.5923C31.9447 14.941 31.2063 15.2284 29.3469 15.5158C27.6768 15.8032 26.3006 16.2132 26.3006 18.0563C26.3006 19.612 27.5183 20.091 28.3843 20.091C30.3713 20.091 32.3931 18.8188 32.3931 16.7534V14.5923Z" fill="white"/>
<path d="M50.4497 11.0632C50.2564 9.98263 49.8737 8.83692 47.4344 8.83692C44.9951 8.83692 44.6781 9.76038 44.6781 10.4884C44.6781 13.1592 55.3554 11.2203 55.3554 17.4508C55.3554 22.3786 50.5464 23.2675 47.8828 23.2675C44.0016 23.2675 39.7994 21.9341 39.6719 17.4202H44.2876C44.2876 18.8495 45.1845 19.8994 48.0065 19.8994C50.3144 19.8994 50.8595 18.7881 50.8595 18.1521C50.8595 15.3242 40.2788 17.4547 40.2788 11.1283C40.2788 8.64916 41.8483 5.46875 47.1754 5.46875C50.5116 5.46875 54.4856 6.29642 54.8413 11.0632H50.4459H50.4497Z" fill="white"/>
<path d="M74.0574 22.8223H69.5692V12.553C69.5692 11.3115 69.5035 9.21552 66.6505 9.21552C64.6635 9.21552 63.1249 10.549 63.1249 13.1278V22.8223H58.6367V0H63.1249V8.10429H63.1906C63.7666 6.70568 65.6918 5.468 68.1311 5.468C71.4673 5.468 74.0651 7.4069 74.0651 11.1276V22.8261L74.0574 22.8223Z" fill="white"/>
<path d="M92.8834 17.8646C91.6966 21.934 88.2985 23.2675 85.3798 23.2675C80.5669 23.2675 76.8828 20.9799 76.8828 14.0175C76.8828 11.9828 77.5864 5.46484 85.0628 5.46484C88.43 5.46484 93.0805 7.05505 93.0805 14.78V15.577H81.3749C81.5024 16.8492 81.7576 19.7115 85.3837 19.7115C86.6362 19.7115 87.9158 19.0754 88.2715 17.8684H92.8872L92.8834 17.8646ZM88.457 12.684C88.2019 9.94807 86.4352 9.12423 84.9933 9.12423C82.8748 9.12423 81.7537 10.4577 81.4986 12.684H88.457Z" fill="white"/>
<path d="M111.643 22.8223H107.248V20.6918H107.182C106.092 22.6001 104.105 23.2668 102.245 23.2668C97.1771 23.2668 95.0625 18.8142 95.0625 14.1739C95.0625 8.32654 98.3987 5.46417 102.149 5.46417C105.036 5.46417 106.382 7.01989 107.085 8.10046H107.151V0H111.639V22.8223H111.643ZM103.37 19.6112C106.227 19.6112 107.348 17.2585 107.348 14.7487C107.348 12.0472 106.579 9.31515 103.498 9.31515C100.645 9.31515 99.6821 11.825 99.6821 14.4958C99.6821 16.4998 100.486 19.6151 103.37 19.6151" fill="white"/>
<path d="M139.999 22.8231H135.511V12.5538C135.511 11.3123 135.445 9.21627 132.592 9.21627C130.605 9.21627 129.062 10.5497 129.062 13.1286V22.8231H124.574V5.91324H128.873V8.39243H128.939C129.55 7.37316 130.829 5.46875 134.069 5.46875C137.308 5.46875 140.003 7.40765 140.003 11.1283V22.8269L139.999 22.8231Z" fill="#F47920"/>
<path d="M120.032 1.98871C120.032 3.08461 119.135 3.97743 118.026 3.97743C116.916 3.97743 116.02 3.08844 116.02 1.98871C116.02 0.888981 116.916 0 118.026 0C119.135 0 120.032 0.888981 120.032 1.98871Z" fill="#F47920"/>
<path d="M121.105 5.95928L120.22 5.52628C120.073 5.45731 119.945 5.44964 119.852 5.50712C119.845 5.51479 119.841 5.52628 119.829 5.53394C119.961 5.79834 120.038 6.08956 120.038 6.40377C120.038 6.84826 119.887 7.2506 119.64 7.58397C119.539 7.83304 119.327 8.01696 119.068 8.09743C118.766 8.27753 118.414 8.38865 118.032 8.38865C117.649 8.38865 117.301 8.27753 116.999 8.09743C116.864 8.05528 116.733 7.99014 116.632 7.88668C116.543 7.79855 116.474 7.69509 116.431 7.58397C116.184 7.25443 116.029 6.84826 116.029 6.40377C116.029 6.08956 116.11 5.79834 116.238 5.53394C116.23 5.52628 116.226 5.51479 116.219 5.50712C116.126 5.44964 115.994 5.45731 115.851 5.52628L114.962 5.95928C114.622 6.12404 114.332 6.58386 114.332 6.95938V9.14735C114.332 9.52287 114.622 9.98269 114.958 10.1475L116.423 10.8602C116.381 10.9981 116.35 11.1361 116.354 11.2434V18.9108C116.319 18.9415 116.284 18.9721 116.249 19.0028C115.264 19.9799 115.264 21.5624 116.249 22.5396C117.235 23.5167 118.832 23.5167 119.818 22.5396C120.803 21.5624 120.803 19.9761 119.818 18.999C119.783 18.9645 119.748 18.9376 119.717 18.907V11.2395C119.717 11.1322 119.678 10.9981 119.62 10.8717L121.105 10.1475C121.449 9.98269 121.735 9.52287 121.735 9.14735V6.95938C121.735 6.58386 121.449 6.12404 121.109 5.95928M118.971 21.6966C118.453 22.21 117.614 22.21 117.1 21.6966C116.586 21.1831 116.586 20.3554 117.1 19.842C117.351 19.5929 117.684 19.4549 118.035 19.4588C118.387 19.4588 118.72 19.5929 118.971 19.842C119.485 20.3516 119.485 21.1831 118.971 21.6966Z" fill="#F47920"/>
<path d="M4.81292 12.5875V22.8223H0V0H4.81292V8.64457H13.7893V0H18.6022V22.8223H13.7893V12.5875H4.81292Z" fill="white"/>
<path d="M3.46775 34.0615C4.44193 34.0615 5.19963 34.391 5.74084 35.0501C6.28205 35.7091 6.54879 36.6441 6.54879 37.8511C6.54879 39.0581 6.27818 39.9969 5.73311 40.6675C5.18803 41.3381 4.4342 41.6714 3.46775 41.6714C2.98452 41.6714 2.54382 41.5833 2.14178 41.407C1.73973 41.2308 1.40727 40.9587 1.13667 40.5909H1.05549L0.819671 41.5373H0.0117188V31.0918H1.13667V33.6285C1.13667 34.1956 1.11734 34.7052 1.08255 35.1574H1.13667C1.65855 34.4216 2.43558 34.0576 3.46775 34.0576V34.0615ZM3.30538 34.9926C2.53609 34.9926 1.98328 35.211 1.64695 35.6478C1.31063 36.0847 1.14053 36.8204 1.14053 37.8511C1.14053 38.8819 1.31449 39.6252 1.66242 40.0697C2.01034 40.5142 2.56701 40.7365 3.33631 40.7365C4.02829 40.7365 4.54244 40.4874 4.87876 39.9893C5.21509 39.4911 5.38518 38.7746 5.38518 37.8358C5.38518 36.897 5.21509 36.1651 4.87876 35.6938C4.54244 35.2225 4.01669 34.9888 3.30925 34.9888L3.30538 34.9926Z" fill="white"/>
<path d="M7.01172 34.1835H8.21785L9.84535 38.3794C10.201 39.3373 10.4214 40.027 10.5103 40.4524H10.5644C10.6224 40.2225 10.7461 39.8316 10.9316 39.2798C11.1172 38.7281 11.7319 37.0267 12.7718 34.1797H13.9779L10.7886 42.556C10.4716 43.3837 10.1044 43.97 9.68299 44.3187C9.26161 44.6674 8.7436 44.8398 8.12894 44.8398C7.78488 44.8398 7.44855 44.8015 7.11223 44.7249V43.832C7.35964 43.8857 7.63798 43.9125 7.94338 43.9125C8.71654 43.9125 9.26548 43.4833 9.59407 42.625L10.0077 41.5789L7.01558 34.1797L7.01172 34.1835Z" fill="white"/>
<path d="M26.5813 36.5413C26.5813 38.1622 26.1368 39.3999 25.2515 40.2582C24.3624 41.1165 23.0867 41.5457 21.4205 41.5457H18.6758V31.7324H21.7104C23.249 31.7324 24.4474 32.1539 25.3018 33.0008C26.1561 33.8476 26.5813 35.0278 26.5813 36.5452V36.5413ZM25.3636 36.5797C25.3636 35.2998 25.0389 34.3342 24.3933 33.6866C23.7438 33.0391 22.7813 32.7134 21.5055 32.7134H19.8317V40.5533H21.2349C22.6073 40.5533 23.6395 40.2199 24.3314 39.5493C25.0234 38.8788 25.3675 37.8901 25.3675 36.5797H25.3636Z" fill="white"/>
<path d="M31.4941 41.6761C30.3962 41.6761 29.5303 41.3466 28.8963 40.6836C28.2623 40.0207 27.9453 39.1011 27.9453 37.9247C27.9453 36.7484 28.2391 35.7981 28.8306 35.0969C29.4182 34.3995 30.2107 34.0508 31.2042 34.0508C32.1358 34.0508 32.8703 34.3535 33.4116 34.9589C33.9528 35.5643 34.2234 36.3652 34.2234 37.3576V38.0627H29.1089C29.1321 38.9248 29.3525 39.5839 29.77 40.0284C30.1875 40.4767 30.7751 40.699 31.5328 40.699C32.333 40.699 33.1216 40.5342 33.9025 40.2008V41.1933C33.5043 41.3619 33.1294 41.4845 32.7737 41.5611C32.418 41.6339 31.9928 41.6723 31.4903 41.6723L31.4941 41.6761ZM31.1887 34.9819C30.5934 34.9819 30.1179 35.1735 29.7622 35.5605C29.4066 35.9437 29.1978 36.4763 29.136 37.1584H33.0172C33.0172 36.4572 32.8587 35.9169 32.5418 35.5452C32.2248 35.1697 31.7725 34.9857 31.1887 34.9857V34.9819Z" fill="white"/>
<path d="M36.9726 41.5412H35.8477V31.0956H36.9726V41.5412Z" fill="white"/>
<path d="M45.4599 37.8558C45.4599 39.0551 45.1545 39.9901 44.5476 40.6645C43.9368 41.3389 43.094 41.6761 42.0193 41.6761C41.3544 41.6761 40.7668 41.5228 40.2527 41.2124C39.7385 40.9021 39.3403 40.4614 39.062 39.8828C38.7837 39.3042 38.6406 38.6298 38.6406 37.8558C38.6406 36.6564 38.9422 35.7215 39.5491 35.0547C40.1522 34.3842 40.9949 34.0508 42.0696 34.0508C43.1443 34.0508 43.9329 34.3918 44.5437 35.0777C45.1545 35.7636 45.4599 36.6871 45.4599 37.8558ZM39.8042 37.8558C39.8042 38.7946 39.9937 39.5111 40.3725 40.0054C40.7514 40.4997 41.308 40.745 42.0464 40.745C42.7848 40.745 43.3414 40.4997 43.7242 40.0093C44.1069 39.5188 44.2963 38.8022 44.2963 37.8558C44.2963 36.9093 44.1069 36.2119 43.7242 35.7253C43.3414 35.2386 42.7809 34.9972 42.0348 34.9972C41.2887 34.9972 40.7436 35.2348 40.3686 35.7176C39.9937 36.1966 39.8081 36.9093 39.8081 37.8596L39.8042 37.8558Z" fill="white"/>
<path d="M46.9922 32.1869C46.9922 31.9301 47.054 31.7462 47.1816 31.6274C47.3092 31.5086 47.4677 31.4512 47.6571 31.4512C47.8465 31.4512 47.9934 31.5125 48.1249 31.6313C48.2563 31.7539 48.322 31.9378 48.322 32.1907C48.322 32.4436 48.2563 32.6275 48.1249 32.7502C47.9934 32.8728 47.8388 32.9341 47.6571 32.9341C47.4677 32.9341 47.3092 32.8728 47.1816 32.7502C47.054 32.6275 46.9922 32.4398 46.9922 32.1907V32.1869ZM48.2099 41.5365H47.085V34.1794H48.2099V41.5365Z" fill="white"/>
<path d="M52.8084 40.7553C53.0056 40.7553 53.1988 40.74 53.3844 40.7132C53.57 40.6825 53.7169 40.6557 53.8251 40.6212V41.4757C53.7053 41.5332 53.5236 41.583 53.2878 41.6213C53.0519 41.6596 52.8355 41.6788 52.646 41.6788C51.2118 41.6788 50.4928 40.9278 50.4928 39.4295V35.0536H49.4297V34.5171L50.4928 34.0535L50.9683 32.4824H51.6177V34.1876H53.771V35.0536H51.6177V39.3835C51.6177 39.828 51.7221 40.1652 51.9347 40.4028C52.1473 40.6404 52.4373 40.7592 52.8084 40.7592V40.7553Z" fill="white"/>
<path d="M57.9764 40.7553C58.1735 40.7553 58.3668 40.74 58.5524 40.7132C58.7379 40.6825 58.8848 40.6557 58.9931 40.6212V41.4757C58.8732 41.5332 58.6915 41.583 58.4557 41.6213C58.2199 41.6596 58.0034 41.6788 57.814 41.6788C56.3798 41.6788 55.6608 40.9278 55.6608 39.4295V35.0536H54.5977V34.5171L55.6608 34.0535L56.1362 32.4824H56.7857V34.1876H58.939V35.0536H56.7857V39.3835C56.7857 39.828 56.8901 40.1652 57.1027 40.4028C57.3153 40.6404 57.6053 40.7592 57.9764 40.7592V40.7553Z" fill="white"/>
<path d="M63.2246 41.6761C62.1267 41.6761 61.2608 41.3466 60.6268 40.6836C59.9928 40.0207 59.6758 39.1011 59.6758 37.9247C59.6758 36.7484 59.9696 35.7981 60.5611 35.0969C61.1487 34.3995 61.9411 34.0508 62.9347 34.0508C63.8663 34.0508 64.6008 34.3535 65.142 34.9589C65.6832 35.5643 65.9538 36.3652 65.9538 37.3576V38.0627H60.8394C60.8626 38.9248 61.0829 39.5839 61.5004 40.0284C61.9179 40.4767 62.5055 40.699 63.2632 40.699C64.0635 40.699 64.8521 40.5342 65.633 40.2008V41.1933C65.2348 41.3619 64.8598 41.4845 64.5042 41.5611C64.1485 41.6339 63.7233 41.6723 63.2207 41.6723L63.2246 41.6761ZM62.9192 34.9819C62.3239 34.9819 61.8484 35.1735 61.4927 35.5605C61.1371 35.9437 60.9283 36.4763 60.8664 37.1584H64.7477C64.7477 36.4572 64.5892 35.9169 64.2722 35.5452C63.9552 35.1697 63.5068 34.9857 62.9192 34.9857V34.9819Z" fill="white"/>
</g>
<defs>
<clipPath id="clip0_7737_374">
<rect width="140" height="44.8438" fill="white"/>
</clipPath>
</defs>
</svg>
